<svg width="80" height="80" viewBox="0 0 80 80" fill="none" xmlns="http://www.w3.org/2000/svg">
<path d="M57.375 13L50.625 19.875L60.125 29.375L67 22.625C68.125 21.375 68.125 19.5 67 18.375L61.625 13C60.5 11.875 58.625 11.875 57.375 13ZM47.75 22.625L18.375 52.125C17.375 53 16.625 54.25 16.25 55.5L12.875 67.125L24.5 63.625C25.75 63.25 27 62.625 27.875 61.625L57.375 32.25L47.75 22.625ZM64.5 10.125L69.875 15.5C72.5 18.25 72.5 22.625 69.875 25.375L30.75 64.5C29.25 65.875 27.5 67 25.625 67.5L10.5 72C9.75 72.125 9 72 8.5 71.5C8 71 7.875 70.25 8 69.5L12.5 54.375C13 52.5 14.125 50.75 15.5 49.25L54.625 10.125C57.375 7.5 61.75 7.5 64.5 10.125Z" fill="white"/>
</svg>
